<svg width="2055" height="5941" viewBox="0 0 2055 5941" fill="none" xmlns="http://www.w3.org/2000/svg">
<rect width="2053" height="5941" fill="#F6FFF4"/>
<rect width="2055" height="1015" fill="url(#paint0_linear_649_443)"/>
<rect x="1913.81" y="1006.18" width="54.1937" height="44.4515" rx="4" fill="#6C91DF"/>
<rect x="1914.31" y="1006.68" width="53.1937" height="43.4515" rx="3.5" stroke="#030F27" stroke-opacity="0.5"/>
<rect x="1904.94" y="1567.89" width="44.3403" height="36.3694" rx="4" fill="#6C91DF"/>
<rect x="1905.44" y="1568.39" width="43.3403" height="35.3694" rx="3.5" stroke="#030F27" stroke-opacity="0.5"/>
<rect x="1815.27" y="261.822" width="30.5456" height="25.0545" rx="4" fill="#6C91DF"/>
<rect x="1815.77" y="262.322" width="29.5456" height="24.0545" rx="3.5" stroke="#030F27" stroke-opacity="0.5"/>
<rect x="86" y="1700.43" width="32.5163" height="26.6709" rx="4" fill="#6C91DF"/>
<rect x="86.5" y="1700.93" width="31.5163" height="25.6709" rx="3.5" stroke="#030F27" stroke-opacity="0.5"/>
<rect x="1779.8" y="232.727" width="35.4723" height="29.0955" rx="4" fill="#6C91DF"/>
<rect x="1780.3" y="233.227" width="34.4723" height="28.0955" rx="3.5" stroke="#030F27" stroke-opacity="0.5"/>
<rect x="252.521" y="657.035" width="26.6042" height="21.8216" rx="4" fill="#6C91DF"/>
<rect x="253.021" y="657.535" width="25.6042" height="20.8216" rx="3.5" stroke="#030F27" stroke-opacity="0.5"/>
<rect x="1859.61" y="1050.63" width="54.1937" height="44.4515" rx="4" fill="#6C91DF"/>
<rect x="1860.11" y="1051.13" width="53.1937" height="43.4515" rx="3.5" stroke="#030F27" stroke-opacity="0.5"/>
<rect x="279.125" y="631.979" width="30.5456" height="25.0545" rx="4" fill="#6C91DF"/>
<rect x="279.625" y="632.479" width="29.5456" height="24.0545" rx="3.5" stroke="#030F27" stroke-opacity="0.5"/>
<rect x="1840.89" y="1515.36" width="64.0472" height="52.5336" rx="4" fill="#6C91DF"/>
<rect x="1841.39" y="1515.86" width="63.0472" height="51.5336" rx="3.5" stroke="#6C91DF" stroke-opacity="0.5"/>
<rect x="118.516" y="1727.1" width="44.3403" height="36.3694" rx="4" fill="#6C91DF"/>
<rect x="119.016" y="1727.6" width="43.3403" height="35.3694" rx="3.5" stroke="#030F27" stroke-opacity="0.5"/>
<path d="M181.576 214.904C181.576 212.695 183.367 210.904 185.576 210.904H222.902C225.111 210.904 226.902 212.695 226.902 214.904V244.082C226.902 246.291 225.111 248.082 222.902 248.082H185.576C183.367 248.082 181.576 246.291 181.576 244.082V214.904Z" fill="#6C91DF"/>
<path d="M185.576 211.404H222.901C224.834 211.404 226.401 212.971 226.401 214.904V244.082C226.401 246.015 224.834 247.582 222.901 247.582H185.576C183.643 247.582 182.076 246.015 182.076 244.082V214.904L182.081 214.725C182.175 212.875 183.703 211.404 185.576 211.404Z" stroke="#030F27" stroke-opacity="0.5"/>
<rect x="1887.2" y="122" width="50.2524" height="41.2187" rx="4" fill="#6C91DF"/>
<rect x="1887.7" y="122.5" width="49.2524" height="40.2187" rx="3.5" stroke="#030F27" stroke-opacity="0.5"/>
<rect x="221.975" y="180.195" width="37.443" height="30.7119" rx="4" fill="#6C91DF"/>
<rect x="222.475" y="180.695" width="36.443" height="29.7119" rx="3.5" stroke="#030F27" stroke-opacity="0.5"/>
<rect x="1993.91" y="3325.99" width="59.0871" height="49.0673" rx="4" fill="#6C91DF"/>
<rect x="1994.41" y="3326.49" width="58.0871" height="48.0673" rx="3.5" stroke="#030F27" stroke-opacity="0.5"/>
<rect x="1984.24" y="3946.02" width="48.344" height="40.146" rx="4" fill="#6C91DF"/>
<rect x="1984.74" y="3946.52" width="47.344" height="39.146" rx="3.5" stroke="#030F27" stroke-opacity="0.5"/>
<rect x="1886.48" y="2504.34" width="33.3036" height="27.6561" rx="4" fill="#6C91DF"/>
<rect x="1886.98" y="2504.84" width="32.3036" height="26.6561" rx="3.5" stroke="#030F27" stroke-opacity="0.5"/>
<rect x="1.06641" y="4092.33" width="35.4523" height="29.4404" rx="4" fill="#6C91DF"/>
<rect x="1.56641" y="4092.83" width="34.4523" height="28.4404" rx="3.5" stroke="#030F27" stroke-opacity="0.5"/>
<rect x="1847.81" y="2472.22" width="38.6752" height="32.1168" rx="4" fill="#6C91DF"/>
<rect x="1848.31" y="2472.72" width="37.6752" height="31.1168" rx="3.5" stroke="#030F27" stroke-opacity="0.5"/>
<rect x="182.625" y="2940.59" width="29.0064" height="24.0876" rx="4" fill="#6C91DF"/>
<rect x="183.125" y="2941.09" width="28.0064" height="23.0876" rx="3.5" stroke="#030F27" stroke-opacity="0.5"/>
<rect x="1934.83" y="3375.06" width="59.0871" height="49.0673" rx="4" fill="#6C91DF"/>
<rect x="1935.33" y="3375.56" width="58.0871" height="48.0673" rx="3.5" stroke="#030F27" stroke-opacity="0.5"/>
<rect x="211.631" y="2912.93" width="33.3036" height="27.6561" rx="4" fill="#6C91DF"/>
<rect x="212.131" y="2913.43" width="32.3036" height="26.6561" rx="3.5" stroke="#030F27" stroke-opacity="0.5"/>
<rect x="1914.41" y="3888.04" width="69.8302" height="57.9886" rx="4" fill="#6C91DF"/>
<rect x="1914.91" y="3888.54" width="68.8302" height="56.9886" rx="3.5" stroke="#6C91DF" stroke-opacity="0.5"/>
<rect x="36.5195" y="4121.77" width="48.344" height="40.146" rx="4" fill="#6C91DF"/>
<rect x="37.0195" y="4122.27" width="47.344" height="39.146" rx="3.5" stroke="#030F27" stroke-opacity="0.5"/>
<path d="M105.275 2452.13C105.275 2449.92 107.066 2448.13 109.275 2448.13H150.694C152.903 2448.13 154.694 2449.92 154.694 2452.13V2485.17C154.694 2487.38 152.903 2489.17 150.694 2489.17H109.275C107.066 2489.17 105.275 2487.38 105.275 2485.17V2452.13Z" fill="#6C91DF"/>
<path d="M109.275 2448.63H150.693C152.626 2448.63 154.193 2450.2 154.193 2452.13V2485.17C154.193 2487.1 152.626 2488.67 150.693 2488.67H109.275C107.342 2488.67 105.775 2487.1 105.775 2485.17V2452.13C105.775 2450.2 107.342 2448.63 109.275 2448.63Z" stroke="#030F27" stroke-opacity="0.5"/>
<rect x="1964.91" y="2350" width="54.7898" height="45.4988" rx="4" fill="#6C91DF"/>
<rect x="1965.41" y="2350.5" width="53.7898" height="44.4988" rx="3.5" stroke="#030F27" stroke-opacity="0.5"/>
<rect x="149.322" y="2414.23" width="40.8238" height="33.9011" rx="4" fill="#6C91DF"/>
<rect x="149.822" y="2414.73" width="39.8238" height="32.9011" rx="3.5" stroke="#030F27" stroke-opacity="0.5"/>
<defs>
<linearGradient id="paint0_linear_649_443" x1="1124" y1="0.000106677" x2="1124" y2="1086.96" gradientUnits="userSpaceOnUse">
<stop offset="0.216346" stop-color="#041B4B"/>
<stop offset="0.5" stop-color="#0947CD"/>
<stop offset="0.846154" stop-color="#F6FFF4"/>
</linearGradient>
</defs>
</svg>
