<svg width="2055" height="1744" viewBox="0 0 2055 1744" fill="none" xmlns="http://www.w3.org/2000/svg">
<g clip-path="url(#clip0_584_18)">
<rect width="2055" height="1744" fill="white"/>
<path d="M0 0H2055V1744H0V0Z" fill="#F6FFF4"/>
<rect x="1445" y="1672" width="27" height="27" fill="#1C355E"/>
<rect x="1811" y="983" width="22" height="22" fill="#6C91DF"/>
<rect x="1972" y="575" width="22" height="22" fill="#3560BB"/>
<rect x="1994" y="597" width="22" height="22" fill="#041B4B"/>
<rect x="1822" y="455" width="27" height="27" fill="#3560BB"/>
<rect x="1970" y="171" width="22" height="22" fill="#3560BB"/>
<rect x="1948" y="193" width="22" height="22" fill="#041B4B"/>
<rect x="226" y="294" width="22" height="22" fill="#6C91DF"/>
<rect x="150" y="1618" width="22" height="22" fill="#3560BB"/>
<rect x="1626" y="788" width="27" height="27" fill="#6C91DF"/>
<rect x="1972" y="575" width="22" height="22" fill="#3560BB"/>
<rect x="1994" y="597" width="22" height="22" fill="#041B4B"/>
<rect x="1554" y="411" width="22" height="22" fill="#3560BB"/>
<rect x="1970" y="171" width="22" height="22" fill="#3560BB"/>
<rect x="1948" y="193" width="22" height="22" fill="#041B4B"/>
</g>
<defs>
<clipPath id="clip0_584_18">
<rect width="2055" height="1744" fill="white"/>
</clipPath>
</defs>
</svg>
